<?xml version="1.0" encoding="utf-8"?>
<!-- Generator: Adobe Illustrator 16.0.0, SVG Export Plug-In . SVG Version: 6.00 Build 0)  -->
<!DOCTYPE svg PUBLIC "-//W3C//DTD SVG 1.1//EN" "http://www.w3.org/Graphics/SVG/1.1/DTD/svg11.dtd">
<svg version="1.1" id="caution" xmlns="http://www.w3.org/2000/svg" xmlns:xlink="http://www.w3.org/1999/xlink" x="0px" y="0px"
	 width="800px" height="800px" viewBox="0 0 800 800" enable-background="new 0 0 800 800" xml:space="preserve">
<path id="primary" stroke="#000000" stroke-width="1.5" stroke-linecap="round" stroke-linejoin="round" d="M452.38,443.649H347.621
	c-22.5,0.113-41.399-16.897-43.649-39.285L269.053,55.17c-2.412-23.985,15.079-45.385,39.064-47.796
	c1.524-0.153,3.054-0.226,4.584-0.218h174.598c24.106-0.121,43.746,19.323,43.868,43.43c0.008,1.53-0.065,3.061-0.219,4.583
	l-34.92,349.194C493.779,426.752,474.88,443.763,452.38,443.649z M487.299,705.545c0-48.213-39.084-87.298-87.298-87.298
	s-87.299,39.085-87.299,87.298c0,48.214,39.085,87.299,87.299,87.299S487.299,753.759,487.299,705.545z"/>
</svg>
