<?xml version="1.0" encoding="utf-8"?>
<!-- Generator: Adobe Illustrator 16.0.0, SVG Export Plug-In . SVG Version: 6.00 Build 0)  -->
<!DOCTYPE svg PUBLIC "-//W3C//DTD SVG 1.1//EN" "http://www.w3.org/Graphics/SVG/1.1/DTD/svg11.dtd">
<svg version="1.1" id="Capa_1" xmlns="http://www.w3.org/2000/svg" xmlns:xlink="http://www.w3.org/1999/xlink" x="0px" y="0px"
	 width="800px" height="800px" viewBox="0 0 800 800" enable-background="new 0 0 800 800" xml:space="preserve">
<path fill="#070798" d="M400,25C192.9,25,25,192.9,25,400c0,207.1,167.9,375,375,375c207.1,0,375-167.9,375-375
	C775,192.9,607.1,25,400,25 M342.6,494.013c16.45,20.264,37.352,30.389,62.727,30.389c25.975,0,45.8-8.688,59.45-26.075
	c7.55-9.352,13.8-23.375,18.773-42.075h75.288c-6.5,39.537-23.101,71.688-49.775,96.463
	c-26.713,24.762-60.888,37.149-102.611,37.149c-51.612,0-92.188-16.726-121.7-50.2c-29.538-33.612-44.313-79.726-44.313-138.287
	c0-63.325,16.8-112.138,50.388-146.413c29.225-29.862,66.388-44.788,111.5-44.788c60.375,0,104.513,20.013,132.425,60.05
	c15.425,22.475,23.7,45.025,24.825,67.663h-75.788c-4.837-17.4-11.012-30.5-18.55-39.363c-13.5-15.75-33.524-23.637-60.037-23.637
	c-27,0-48.288,11.125-63.888,33.35c-15.575,22.225-23.362,53.688-23.362,94.362C317.95,443.275,326.175,473.737,342.6,494.013"/>
</svg>
