<?xml version="1.0" encoding="utf-8"?>
<!-- Generator: Adobe Illustrator 16.0.0, SVG Export Plug-In . SVG Version: 6.00 Build 0)  -->
<!DOCTYPE svg PUBLIC "-//W3C//DTD SVG 1.1//EN" "http://www.w3.org/Graphics/SVG/1.1/DTD/svg11.dtd">
<svg version="1.1" id="Capa_1" xmlns="http://www.w3.org/2000/svg" xmlns:xlink="http://www.w3.org/1999/xlink" x="0px" y="0px"
	 width="800px" height="800px" viewBox="0 0 800 800" enable-background="new 0 0 800 800" xml:space="preserve">
<g>
	<g>
		<g>
			<path d="M625.067,225.008c0,0-121.934-122.621-126.314-127.002c-4.381-4.38-8.188-6.402-15.4-6.402
				c-7.21,0-0.017-0.001-0.029-0.001H263.032c-52.074,0-94.44,42.366-94.44,94.44v427.913c0,52.076,42.366,94.44,94.44,94.44
				h273.934c52.076,0,94.439-42.364,94.439-94.44v-373.58C631.405,232.962,627.79,228.121,625.067,225.008z M505.116,166.215
				l52.086,52.366h-52.086V166.215z M587.819,613.955c0,28.041-22.811,50.852-50.854,50.852H263.032
				c-28.04,0-50.852-22.811-50.852-50.852V186.042c0-28.041,22.813-50.853,50.852-50.853h198.5v105.187
				c0,12.036,9.759,21.793,21.791,21.793h104.496V613.955L587.819,613.955z"/>
			<path d="M530.048,554.953c8.713-10.507,13.957-23.991,13.957-38.675c0-33.458-27.22-60.68-60.681-60.68
				c-33.459,0-60.683,27.217-60.683,60.68c0,14.683,5.243,28.167,13.957,38.675l-32.29,60.366c-1.582,2.951-1.047,6.587,1.314,8.962
				c2.363,2.372,5.996,2.925,8.956,1.362l23.719-12.531l2.743,26.688c0.264,2.568,1.79,4.766,3.983,5.936
				c0.651,0.35,1.363,0.608,2.116,0.756c3.285,0.645,6.605-0.931,8.186-3.876l27.996-52.336l27.991,52.336
				c1.578,2.945,4.897,4.521,8.183,3.876c0.756-0.149,1.468-0.405,2.119-0.756c2.192-1.17,3.722-3.371,3.984-5.936l2.746-26.688
				l23.72,12.531c2.954,1.563,6.592,1.01,8.952-1.362c2.358-2.375,2.892-6.011,1.313-8.962L530.048,554.953z M483.329,546.993
				c-16.937,0-30.716-13.777-30.716-30.715c0-16.936,13.775-30.715,30.716-30.715c16.933,0,30.714,13.774,30.714,30.715
				C514.039,533.213,500.263,546.993,483.329,546.993z"/>
		</g>
	</g>
</g>
<path d="M666.267,634.845L165.155,133.733C227.867,78.355,309.911,44.444,400,44.444c196.045,0,355.556,159.511,355.556,355.556
	C755.556,490.045,721.645,572.133,666.267,634.845 M44.445,400c0-90.089,33.866-172.133,89.289-234.845l501.111,501.111
	c-62.712,55.378-144.8,89.289-234.845,89.289C203.956,755.556,44.444,596.045,44.445,400 M400,0C179.067,0,0,179.066,0,400
	s179.067,400,400,400c220.889,0,400-179.066,400-400S620.889,0,400,0"/>
</svg>
